# xmcd
#
# Track frame offsets: 
#        150
#        13230
#        33740
#        50582
#        64505
#        82720
#        100287
#        113142
#        141012
#        156305
#        175817
#        194017
#        210190
#        230200
#        250995
#
# Disc length: 3601 seconds
#
# Revision: 6
# Processed by: cddbd v1.5.2PL0 Copyright (c) Steve Scherf et al.
# Submitted via: ExactAudioCopy v0.99pb4
#
DISCID=cf0e0f0f
DTITLE=Bryan Ferry - The Ultimate Collection (With Roxy Music)
DYEAR=1988
DGENRE=Pop
TTITLE0=Let's Stick Together ('88 Remix)
TTITLE1=The 'IN' Crowd
TTITLE2=Dance Away
TTITLE3=Angel Eyes
TTITLE4=He'll Have To Go
TTITLE5=Tokyo Joe
TTITLE6=All I Want Is You
TTITLE7=Jealous Guy
TTITLE8=The Price Of Love
TTITLE9=Don't Stop The Dance
TTITLE10=Love Is The Drug
TTITLE11=This Is Tomorrow
TTITLE12=Slave To Love
TTITLE13=Help Me
TTITLE14=Avalon
EXTD=BRYAN FERRY - THE ULTIMATE COLLECTIO (WITH ROXY MUSIC]\n(1974 - 1
EXTD=988]\nLabel: EG Records Ltd.\nEGCPTV 2
EXTT0=
EXTT1=
EXTT2=
EXTT3=
EXTT4=
EXTT5=
EXTT6=
EXTT7=
EXTT8=
EXTT9=
EXTT10=
EXTT11=
EXTT12=
EXTT13=
EXTT14=
PLAYORDER=
